<?xml version="1.0" encoding="utf-8"?>
<!-- Generator: Adobe Illustrator 19.0.0, SVG Export Plug-In . SVG Version: 6.00 Build 0)  -->
<svg version="1.1" fill="#6f7385" id="Camada_1" xmlns="http://www.w3.org/2000/svg" xmlns:xlink="http://www.w3.org/1999/xlink" x="0px" y="0px"
	 viewBox="414 35.3 720 721.3" style="enable-background:new 414 35.3 720 721.3;" xml:space="preserve">
<path d="M1134,386.7v18.1c-0.1,0.6-0.2,1.2-0.3,1.8c-0.3,6.3-0.5,12.6-0.9,19c-1,13-2.8,26-5.4,38.8
	C1097.7,616.4,974.1,732.3,820.6,752c-29.8,3.9-60,4-89.9,0.4c-14.2-1.7-28.3-4.3-42.2-7.7c-17.2-4.2-34.1-9.7-50.5-16.5
	c-1-0.5-2.2-0.6-3.3-0.1c-33.5,13.6-68.5,21.3-104.4,25.4c-11.1,1.3-22.2,1.9-33.3,2.8c-0.9,0.1-1.8,0.2-2.7,0.3H468
	c-0.5-0.2-1.1-0.3-1.6-0.3c-6.8-0.1-13.7-0.2-20.5-0.3l-25.5-0.3c-0.5,0-0.9,0-1.6-0.1c0.5-0.9,0.9-1.6,1.4-2.2
	c10-15.2,20-30.4,30-45.6c4.8-7.3,9.6-14.5,13.6-22.2c8.9-16.8,15.5-34.3,17.3-53.4c1.1-10.6,0.1-21.4-3-31.6
	c-0.4-1.2-0.9-2.3-1.5-3.3c-27-39.8-45.8-84.6-55.1-131.8c-2.3-11.4-4-22.9-5.1-34.5c-0.9-9.5-1.3-19.1-1.9-28.6
	c-0.1-0.5-0.2-1.1-0.4-1.6v-12.5c0.2-0.3,0.3-0.7,0.4-1c0.2-2.7,0.3-5.3,0.4-8c0.4-11.8,1.5-23.6,3.2-35.4c1.9-13.4,4.6-26.6,8-39.7
	C462.7,163,581.3,58,726.1,38.7c11.9-1.7,23.9-2.7,35.9-3c1.3,0,2.5-0.2,3.8-0.4h17.7c0.5,0.1,0.9,0.3,1.4,0.3
	c4,0.2,7.9,0.3,11.8,0.5c12.2,0.7,24.4,2,36.4,4.1c152.4,25.2,271.6,145,296.2,297.5c2.6,15.6,4.1,31.4,4.3,47.2
	C1133.7,385.5,1133.8,386.1,1134,386.7z M485,720.5c1.2,0,2,0,2.8,0c3.8-0.1,7.6-0.3,11.4-0.4c11.8-0.5,23.5-1.7,35.2-3.2
	c12.7-1.7,25.3-3.9,37.8-6.8c21.3-4.9,42.1-11.5,61.9-21c1.2-0.7,2.8-0.7,4,0c39.3,18.3,81.9,28.5,125.2,29.9
	c10.6,0.4,21.3,0.2,31.9-0.6c12.8-0.9,25.6-2.4,38.3-4.8c67.6-12.5,129.5-46.2,176.6-96.4c55.3-58.7,86.7-135.9,88-216.5
	c0.2-9.6-0.3-19.3-0.9-28.9c-1.1-15.7-3.3-31.3-6.8-46.7c-35-158.5-182-266.5-343.7-252.5c-14,1.2-28,3.3-41.8,6.3
	C571.8,108,471.1,217.6,453.2,352.8c-2.2,17-3.1,34.2-2.6,51.4c0.3,12.1,1.3,24.3,3,36.3c7,50.3,25.8,98.2,54.8,139.8
	c0.7,0.9,1.2,1.9,1.7,3c5.3,13.9,7.8,28.7,7.3,43.5c-0.4,11.6-2.1,23.2-5.2,34.4c-5.6,20.3-14.5,39.2-25.8,57
	C486,718.8,485.6,719.5,485,720.5z"/>
<path d="M917.7,570.7c14.1-9.9,4.5-21.1-15.5-17.8c-17.8,2.9-18-1-1.2-25.5c34.6-50.3,13-122.8-47-158.2
	c-21.1-12.4-57.5-23-79.7-23.2c-27.3-0.2-34-3.9-35.8-19.9c-1.5-12.2,0.4-16.4,10.3-23.8c14.3-10.6,23.4-26.9,27.5-48.9
	c2.7-13.7,1.9-16.4-6-18.8c-4.8-1.5-12.8-0.6-17.8,2.1c-7.7,3.9-9.5,3.1-13-6c-5.8-15.1-12.6-17.8-22.4-9.1
	c-7,6.4-8.5,13.7-8.5,41.2c0,0,3.1,25-2.9,31.1c-4.5,4.5-23.4,7.7-23.4,7.7c-31.7,6.6-62.5,31.7-58.4,47.6
	c3.1,11.6,14.1,21.5,25.7,23.8c7,1.2,12.8,6.2,14.9,23.8c4.5,37.3,9.3,54.9,32.3,77.2c17,16.6,22.1,24.8,23.8,38.1
	c1.7,15.9,0.8,17.6-16.6,28.6c0,0-18.4,5.4-18.4,11.6c0,8.1,18.8,13.7,18.8,13.7c24.4,10.1,36.2,7.7,109.1,6.4
	c42-0.6,80.3,0.2,85.3,2.1C904.5,576.5,911.3,575,917.7,570.7L917.7,570.7z M743.6,540.2c0-5.4,13.7-28.2,16.8-28.2
	c1.9,0,9.9,6.8,18.2,15.3l14.7,15.3h-24.8C754.8,542.7,743.6,541.5,743.6,540.2L743.6,540.2z"/>
</svg>
