<?xml version="1.0" encoding="UTF-8" standalone="no"?>
<svg
   xmlns:dc="http://purl.org/dc/elements/1.1/"
   xmlns:cc="http://creativecommons.org/ns#"
   xmlns:rdf="http://www.w3.org/1999/02/22-rdf-syntax-ns#"
   xmlns:svg="http://www.w3.org/2000/svg"
   xmlns="http://www.w3.org/2000/svg"
   xmlns:xlink="http://www.w3.org/1999/xlink"
   xmlns:sodipodi="http://sodipodi.sourceforge.net/DTD/sodipodi-0.dtd"
   xmlns:inkscape="http://www.inkscape.org/namespaces/inkscape"
   width="100.8pt"
   height="100.8pt"
   viewBox="0 0 100.8 100.8"
   version="1.2"
   id="svg355"
   sodipodi:docname="black.svg"
   inkscape:version="1.0.2 (e86c870879, 2021-01-15)">
  <metadata
     id="metadata359">
    <rdf:RDF>
      <cc:Work
         rdf:about="">
        <dc:format>image/svg+xml</dc:format>
        <dc:type
           rdf:resource="http://purl.org/dc/dcmitype/StillImage" />
        <dc:title></dc:title>
      </cc:Work>
    </rdf:RDF>
  </metadata>
  <sodipodi:namedview
     pagecolor="#ffffff"
     bordercolor="#666666"
     borderopacity="1"
     objecttolerance="10"
     gridtolerance="10"
     guidetolerance="10"
     inkscape:pageopacity="0"
     inkscape:pageshadow="2"
     inkscape:window-width="1920"
     inkscape:window-height="1017"
     id="namedview357"
     showgrid="false"
     inkscape:zoom="1.5066964"
     inkscape:cx="-6.1904992"
     inkscape:cy="91.876391"
     inkscape:window-x="0"
     inkscape:window-y="0"
     inkscape:window-maximized="1"
     inkscape:current-layer="surface1690"
     inkscape:pagecheckerboard="true"
     inkscape:document-rotation="0"
     inkscape:snap-page="false"
     inkscape:snap-bbox="false" />
  <defs
     id="defs334">
    <clipPath
       id="clip1">
      <path
         d="M 0 0 L 100.769531 0 L 100.769531 100.773438 L 0 100.773438 Z M 0 0 "
         id="path2" />
    </clipPath>
    <filter
       id="alpha"
       filterUnits="objectBoundingBox"
       x="0%"
       y="0%"
       width="100%"
       height="100%">
      <feColorMatrix
         type="matrix"
         in="SourceGraphic"
         values="0 0 0 0 1 0 0 0 0 1 0 0 0 0 1 0 0 0 1 0"
         id="feColorMatrix5" />
    </filter>
    <mask
       id="mask0">
      <g
         filter="url(#alpha)"
         id="g10">
        <rect
           x="0"
           y="0"
           width="100.8"
           height="100.8"
           style="fill:rgb(0%,0%,0%);fill-opacity:0.06;stroke:none;"
           id="rect8" />
      </g>
    </mask>
    <clipPath
       id="clip3">
      <path
         d="M 0.804688 0.257812 L 97.097656 0.257812 L 97.097656 96.582031 L 0.804688 96.582031 Z M 0.804688 0.257812 "
         id="path13" />
    </clipPath>
    <clipPath
       id="clip5">
      <path
         d="M 0.804688 0.257812 L 97.097656 0.257812 L 97.097656 96.582031 L 0.804688 96.582031 Z M 0.804688 0.257812 "
         id="path16" />
    </clipPath>
    <clipPath
       id="clip4">
      <rect
         x="0"
         y="0"
         width="98"
         height="97"
         id="rect19" />
    </clipPath>
    <g
       id="surface1697"
       clip-path="url(#clip4)">
      <g
         clip-path="url(#clip5)"
         clip-rule="nonzero"
         id="g24">
        <path
           style="fill:none;stroke-width:7.00146;stroke-linecap:butt;stroke-linejoin:round;stroke:rgb(0%,0%,0%);stroke-opacity:1;stroke-miterlimit:10;"
           d="M 14.144531 24.092969 L 12.953125 25.964062 L 11.820312 27.89375 L 10.800781 29.878125 L 9.863281 31.889844 L 9.042969 33.960156 L 8.335938 36.057812 L 7.710938 38.210156 L 7.226562 40.366406 L 6.832031 42.577344 L 6.519531 44.788281 L 6.351562 46.999219 L 6.292969 49.210156 L 6.351562 51.448437 L 6.492188 53.659375 L 6.773438 55.870312 L 7.144531 58.08125 L 7.625 60.2375 L 8.21875 62.389844 L 8.929688 64.51875 L 9.722656 66.585156 L 10.628906 68.596875 L 11.648438 70.6125 L 12.757812 72.538281 L 13.945312 74.409375 L 15.25 76.225781 L 16.609375 77.952344 L 18.085938 79.624219 L 19.644531 81.241406 L 21.261719 82.772656 L 22.960938 84.190625 L 24.71875 85.55 L 26.5625 86.823437 L 28.460938 87.9875 L 30.414062 89.065625 L 32.398438 90.026562 L 34.46875 90.905469 L 36.539062 91.671094 L 38.664062 92.323437 L 40.820312 92.889844 L 43.003906 93.346875 L 45.214844 93.686719 L 47.425781 93.913281 L 49.636719 94.026562 L 51.875 94.053906 L 54.085938 93.940625 L 56.296875 93.741406 L 58.507812 93.401562 L 60.691406 92.975781 L 62.84375 92.436719 L 64.996094 91.784375 L 67.066406 91.01875 L 69.136719 90.171094 L 71.148438 89.20625 L 73.105469 88.155469 L 75.003906 86.995312 L 76.847656 85.749219 L 78.632812 84.417187 L 80.335938 82.999219 L 81.976562 81.495312 L 83.535156 79.909375 L 85.011719 78.2375 L 86.429688 76.507031 L 87.730469 74.694531 L 88.949219 72.850781 L 90.058594 70.921094 L 91.078125 68.940625 L 92.011719 66.925 L 92.835938 64.858594 L 93.542969 62.729687 L 94.167969 60.604687 L 94.675781 58.421094 L 95.046875 56.2375 L 95.355469 54.026562 L 95.527344 51.815625 L 95.585938 49.577344 L 95.527344 47.366406 L 95.386719 45.128125 L 95.101562 42.917187 L 94.734375 40.733594 L 94.253906 38.55 L 93.65625 36.425 L 92.949219 34.3 L 92.152344 32.229687 L 91.246094 30.190625 L 90.226562 28.20625 L 89.121094 26.276562 L 87.929688 24.405469 L 86.628906 22.592969 L 85.238281 20.835156 L 83.792969 19.163281 L 82.234375 17.573437 L 80.617188 16.042187 L 78.917969 14.596875 L 77.132812 13.264844 L 75.316406 11.991406 L 73.417969 10.827344 L 71.460938 9.749219 L 69.449219 8.788281 L 67.40625 7.909375 L 65.308594 7.14375 L 63.183594 6.491406 L 61.03125 5.925 L 58.875 5.471875 L 56.664062 5.132031 L 54.453125 4.905469 L 52.214844 4.792187 L 50.003906 4.760937 L 47.765625 4.874219 L 45.554688 5.073437 L 43.34375 5.413281 L 41.160156 5.839062 L 39.003906 6.378125 L 36.878906 7.030469 L 34.78125 7.796094 L 32.738281 8.647656 L 30.726562 9.608594 L 28.773438 10.659375 L 26.871094 11.819531 L 25.003906 13.069531 L 7.398438 6.577344 Z M 14.144531 24.092969 "
           transform="matrix(1,0,0,-1,-2,97.8)"
           id="path22" />
      </g>
    </g>
    <mask
       id="mask1">
      <g
         filter="url(#alpha)"
         id="g29">
        <rect
           x="0"
           y="0"
           width="98"
           height="97"
           style="fill:rgb(0%,0%,0%);fill-opacity:0.06;stroke:none;"
           id="rect27" />
      </g>
    </mask>
    <clipPath
       id="clip7">
      <path
         d="M 0.804688 0.257812 L 97.097656 0.257812 L 97.097656 96.582031 L 0.804688 96.582031 Z M 0.804688 0.257812 "
         id="path32" />
    </clipPath>
    <clipPath
       id="clip6">
      <rect
         x="0"
         y="0"
         width="98"
         height="97"
         id="rect35" />
    </clipPath>
    <g
       id="surface1698"
       clip-path="url(#clip6)">
      <g
         clip-path="url(#clip7)"
         clip-rule="nonzero"
         id="g40">
        <path
           style="fill:none;stroke-width:7.00146;stroke-linecap:butt;stroke-linejoin:round;stroke:rgb(0%,0%,0%);stroke-opacity:1;comp-op:src;clip-to-self:true;stroke-miterlimit:10;"
           d="M 14.144531 24.092969 L 12.953125 25.964062 L 11.820312 27.89375 L 10.800781 29.878125 L 9.863281 31.889844 L 9.042969 33.960156 L 8.335938 36.057812 L 7.710938 38.210156 L 7.226562 40.366406 L 6.832031 42.577344 L 6.519531 44.788281 L 6.351562 46.999219 L 6.292969 49.210156 L 6.351562 51.448437 L 6.492188 53.659375 L 6.773438 55.870312 L 7.144531 58.08125 L 7.625 60.2375 L 8.21875 62.389844 L 8.929688 64.51875 L 9.722656 66.585156 L 10.628906 68.596875 L 11.648438 70.6125 L 12.757812 72.538281 L 13.945312 74.409375 L 15.25 76.225781 L 16.609375 77.952344 L 18.085938 79.624219 L 19.644531 81.241406 L 21.261719 82.772656 L 22.960938 84.190625 L 24.71875 85.55 L 26.5625 86.823437 L 28.460938 87.9875 L 30.414062 89.065625 L 32.398438 90.026562 L 34.46875 90.905469 L 36.539062 91.671094 L 38.664062 92.323437 L 40.820312 92.889844 L 43.003906 93.346875 L 45.214844 93.686719 L 47.425781 93.913281 L 49.636719 94.026562 L 51.875 94.053906 L 54.085938 93.940625 L 56.296875 93.741406 L 58.507812 93.401562 L 60.691406 92.975781 L 62.84375 92.436719 L 64.996094 91.784375 L 67.066406 91.01875 L 69.136719 90.171094 L 71.148438 89.20625 L 73.105469 88.155469 L 75.003906 86.995312 L 76.847656 85.749219 L 78.632812 84.417187 L 80.335938 82.999219 L 81.976562 81.495312 L 83.535156 79.909375 L 85.011719 78.2375 L 86.429688 76.507031 L 87.730469 74.694531 L 88.949219 72.850781 L 90.058594 70.921094 L 91.078125 68.940625 L 92.011719 66.925 L 92.835938 64.858594 L 93.542969 62.729687 L 94.167969 60.604687 L 94.675781 58.421094 L 95.046875 56.2375 L 95.355469 54.026562 L 95.527344 51.815625 L 95.585938 49.577344 L 95.527344 47.366406 L 95.386719 45.128125 L 95.101562 42.917187 L 94.734375 40.733594 L 94.253906 38.55 L 93.65625 36.425 L 92.949219 34.3 L 92.152344 32.229687 L 91.246094 30.190625 L 90.226562 28.20625 L 89.121094 26.276562 L 87.929688 24.405469 L 86.628906 22.592969 L 85.238281 20.835156 L 83.792969 19.163281 L 82.234375 17.573437 L 80.617188 16.042187 L 78.917969 14.596875 L 77.132812 13.264844 L 75.316406 11.991406 L 73.417969 10.827344 L 71.460938 9.749219 L 69.449219 8.788281 L 67.40625 7.909375 L 65.308594 7.14375 L 63.183594 6.491406 L 61.03125 5.925 L 58.875 5.471875 L 56.664062 5.132031 L 54.453125 4.905469 L 52.214844 4.792187 L 50.003906 4.760937 L 47.765625 4.874219 L 45.554688 5.073437 L 43.34375 5.413281 L 41.160156 5.839062 L 39.003906 6.378125 L 36.878906 7.030469 L 34.78125 7.796094 L 32.738281 8.647656 L 30.726562 9.608594 L 28.773438 10.659375 L 26.871094 11.819531 L 25.003906 13.069531 L 7.398438 6.577344 Z M 14.144531 24.092969 "
           transform="matrix(1,0,0,-1,-2,97.8)"
           id="path38" />
      </g>
    </g>
    <clipPath
       id="clip2">
      <rect
         x="0"
         y="0"
         width="98"
         height="97"
         id="rect43" />
    </clipPath>
    <g
       id="surface1701"
       clip-path="url(#clip2)">
      <g
         clip-path="url(#clip3)"
         clip-rule="nonzero"
         id="g50">
        <use
           xlink:href="#surface1697"
           comp-op="dst-out"
           id="use46" />
        <use
           xlink:href="#surface1698"
           comp-op="plus"
           mask="url(#mask1)"
           id="use48" />
      </g>
    </g>
    <mask
       id="mask2">
      <g
         filter="url(#alpha)"
         id="g55">
        <rect
           x="0"
           y="0"
           width="100.8"
           height="100.8"
           style="fill:rgb(0%,0%,0%);fill-opacity:0.06;stroke:none;"
           id="rect53" />
      </g>
    </mask>
    <clipPath
       id="clip9">
      <path
         d="M 0.8125 0.265625 L 97.105469 0.265625 L 97.105469 96.589844 L 0.8125 96.589844 Z M 0.8125 0.265625 "
         id="path58" />
    </clipPath>
    <clipPath
       id="clip8">
      <rect
         x="0"
         y="0"
         width="98"
         height="97"
         id="rect61" />
    </clipPath>
    <g
       id="surface1705"
       clip-path="url(#clip8)">
      <g
         clip-path="url(#clip9)"
         clip-rule="nonzero"
         id="g66">
        <path
           style="fill:none;stroke-width:7.00146;stroke-linecap:butt;stroke-linejoin:round;stroke:rgb(0%,0%,0%);stroke-opacity:1;comp-op:src;clip-to-self:true;stroke-miterlimit:10;"
           d="M 13.152344 25.085156 L 11.960938 26.95625 L 10.828125 28.885937 L 9.808594 30.870312 L 8.871094 32.882031 L 8.050781 34.952344 L 7.34375 37.05 L 6.71875 39.202344 L 6.234375 41.358594 L 5.839844 43.569531 L 5.527344 45.780469 L 5.355469 47.991406 L 5.300781 50.202344 L 5.355469 52.440625 L 5.5 54.651562 L 5.78125 56.8625 L 6.152344 59.073437 L 6.632812 61.229687 L 7.226562 63.382031 L 7.9375 65.510937 L 8.730469 67.577344 L 9.636719 69.589062 L 10.65625 71.604687 L 11.765625 73.530469 L 12.953125 75.401562 L 14.257812 77.214062 L 15.617188 78.944531 L 17.09375 80.616406 L 18.652344 82.233594 L 20.269531 83.764844 L 21.96875 85.182812 L 23.726562 86.542187 L 25.570312 87.815625 L 27.46875 88.979687 L 29.425781 90.057812 L 31.40625 91.01875 L 33.476562 91.897656 L 35.546875 92.663281 L 37.671875 93.315625 L 39.828125 93.882031 L 42.007812 94.335156 L 44.21875 94.678906 L 46.429688 94.905469 L 48.644531 95.01875 L 50.882812 95.046094 L 53.09375 94.932812 L 55.304688 94.733594 L 57.515625 94.39375 L 59.699219 93.967969 L 61.851562 93.428906 L 64.007812 92.776562 L 66.074219 92.014844 L 68.144531 91.163281 L 70.15625 90.198437 L 72.113281 89.151562 L 74.011719 87.9875 L 75.855469 86.741406 L 77.640625 85.409375 L 79.34375 83.991406 L 80.984375 82.4875 L 82.546875 80.901562 L 84.019531 79.229687 L 85.4375 77.499219 L 86.738281 75.686719 L 87.960938 73.842969 L 89.066406 71.913281 L 90.085938 69.932812 L 91.019531 67.917187 L 91.84375 65.850781 L 92.550781 63.721875 L 93.175781 61.596875 L 93.683594 59.413281 L 94.054688 57.229687 L 94.363281 55.01875 L 94.535156 52.807812 L 94.59375 50.569531 L 94.535156 48.358594 L 94.394531 46.120312 L 94.109375 43.909375 L 93.742188 41.725781 L 93.261719 39.542187 L 92.664062 37.417187 L 91.957031 35.292187 L 91.160156 33.221875 L 90.253906 31.182812 L 89.234375 29.198437 L 88.128906 27.26875 L 86.9375 25.397656 L 85.636719 23.585156 L 84.246094 21.827344 L 82.800781 20.155469 L 81.242188 18.565625 L 79.625 17.034375 L 77.925781 15.589062 L 76.140625 14.257031 L 74.324219 12.983594 L 72.425781 11.819531 L 70.46875 10.741406 L 68.457031 9.780469 L 66.414062 8.901562 L 64.316406 8.135937 L 62.191406 7.483594 L 60.039062 6.917187 L 57.882812 6.464062 L 55.671875 6.124219 L 53.460938 5.897656 L 51.222656 5.784375 L 49.011719 5.753125 L 46.773438 5.866406 L 44.5625 6.065625 L 42.351562 6.405469 L 40.167969 6.83125 L 38.011719 7.370312 L 35.886719 8.022656 L 33.789062 8.788281 L 31.746094 9.639844 L 29.734375 10.600781 L 27.78125 11.651562 L 25.878906 12.811719 L 24.007812 14.061719 L 6.40625 7.569531 Z M 13.152344 25.085156 "
           transform="matrix(1,0,0,-1,-1,98.8)"
           id="path64" />
      </g>
    </g>
    <clipPath
       id="clip10">
      <path
         d="M 7.003906 7.199219 L 93.429688 7.199219 L 93.429688 93.628906 L 7.003906 93.628906 Z M 7.003906 7.199219 "
         id="path69" />
    </clipPath>
    <clipPath
       id="clip11">
      <path
         d="M 14.371094 74.523438 L 13.210938 72.710938 L 12.132812 70.839844 L 11.167969 68.910156 L 10.289062 66.925781 L 9.523438 64.914062 L 8.84375 62.871094 L 8.277344 60.804688 L 7.796875 58.707031 L 7.453125 56.578125 L 7.199219 54.425781 L 7.027344 52.300781 L 7 50.144531 L 7.058594 47.992188 L 7.257812 45.835938 L 7.511719 43.710938 L 7.90625 41.585938 L 8.390625 39.488281 L 9.015625 37.417969 L 9.695312 35.378906 L 10.488281 33.363281 L 11.394531 31.40625 L 12.386719 29.507812 L 13.492188 27.636719 L 14.65625 25.851562 L 15.929688 24.09375 L 17.289062 22.421875 L 18.707031 20.835938 L 20.238281 19.277344 L 21.824219 17.828125 L 23.46875 16.46875 L 25.199219 15.164062 L 26.984375 13.976562 L 28.828125 12.871094 L 30.726562 11.847656 L 32.683594 10.914062 L 34.667969 10.09375 L 36.707031 9.355469 L 38.75 8.730469 L 40.847656 8.222656 L 42.972656 7.824219 L 45.097656 7.511719 L 47.226562 7.3125 L 49.378906 7.199219 L 51.53125 7.230469 L 53.6875 7.34375 L 55.84375 7.570312 L 57.96875 7.910156 L 60.066406 8.335938 L 62.164062 8.902344 L 64.203125 9.523438 L 66.21875 10.289062 L 68.199219 11.140625 L 70.15625 12.074219 L 72.027344 13.125 L 73.871094 14.257812 L 75.628906 15.476562 L 77.328125 16.78125 L 78.972656 18.199219 L 80.558594 19.671875 L 82.035156 21.203125 L 83.449219 22.847656 L 84.785156 24.519531 L 86.03125 26.277344 L 87.191406 28.09375 L 88.269531 29.964844 L 89.234375 31.890625 L 90.113281 33.875 L 90.878906 35.859375 L 91.558594 37.929688 L 92.125 39.996094 L 92.605469 42.09375 L 92.949219 44.222656 L 93.203125 46.347656 L 93.371094 48.5 L 93.402344 50.65625 L 93.34375 52.808594 L 93.144531 54.964844 L 92.890625 57.089844 L 92.492188 59.214844 L 92.011719 61.3125 L 91.417969 63.382812 L 90.707031 65.425781 L 89.914062 67.40625 L 89.007812 69.394531 L 88.015625 71.292969 L 86.9375 73.164062 L 85.746094 74.949219 L 84.472656 76.707031 L 83.140625 78.378906 L 81.695312 79.964844 L 80.164062 81.496094 L 78.574219 82.972656 L 76.933594 84.332031 L 75.203125 85.636719 L 73.417969 86.824219 L 71.574219 87.929688 L 69.675781 88.953125 L 67.71875 89.886719 L 65.734375 90.710938 L 63.722656 91.445312 L 61.652344 92.070312 L 59.554688 92.578125 L 57.457031 92.976562 L 55.304688 93.289062 L 53.175781 93.488281 L 51.023438 93.601562 L 48.867188 93.570312 L 46.714844 93.460938 L 44.558594 93.230469 L 42.433594 92.890625 L 40.335938 92.46875 L 38.238281 91.929688 L 36.199219 91.277344 L 34.183594 90.511719 L 32.199219 89.660156 L 30.273438 88.726562 L 28.375 87.675781 L 26.53125 86.542969 L 24.773438 85.324219 L 7.199219 91.871094 Z M 14.371094 74.523438 "
         id="path72" />
    </clipPath>
    <linearGradient
       id="linear0"
       gradientUnits="userSpaceOnUse"
       x1="43"
       y1="86.427"
       x2="43"
       y2="0.028"
       gradientTransform="matrix(1,0,0,-1,7.002,93.628)">
      <stop
         offset="0"
         style="stop-color:rgb(52.279663%,90.444946%,78.520203%);stop-opacity:1;"
         id="stop75" />
      <stop
         offset="0.0078125"
         style="stop-color:rgb(52.120972%,90.361023%,78.341675%);stop-opacity:1;"
         id="stop77" />
      <stop
         offset="0.015625"
         style="stop-color:rgb(51.805115%,90.194702%,77.986145%);stop-opacity:1;"
         id="stop79" />
      <stop
         offset="0.0234375"
         style="stop-color:rgb(51.487732%,90.026855%,77.630615%);stop-opacity:1;"
         id="stop81" />
      <stop
         offset="0.03125"
         style="stop-color:rgb(51.171875%,89.859009%,77.27356%);stop-opacity:1;"
         id="stop83" />
      <stop
         offset="0.0390625"
         style="stop-color:rgb(50.854492%,89.692688%,76.91803%);stop-opacity:1;"
         id="stop85" />
      <stop
         offset="0.046875"
         style="stop-color:rgb(50.538635%,89.524841%,76.5625%);stop-opacity:1;"
         id="stop87" />
      <stop
         offset="0.0546875"
         style="stop-color:rgb(50.222778%,89.356995%,76.205444%);stop-opacity:1;"
         id="stop89" />
      <stop
         offset="0.0625"
         style="stop-color:rgb(49.905396%,89.190674%,75.849915%);stop-opacity:1;"
         id="stop91" />
      <stop
         offset="0.0703125"
         style="stop-color:rgb(49.589539%,89.022827%,75.494385%);stop-opacity:1;"
         id="stop93" />
      <stop
         offset="0.078125"
         style="stop-color:rgb(49.273682%,88.85498%,75.138855%);stop-opacity:1;"
         id="stop95" />
      <stop
         offset="0.0859375"
         style="stop-color:rgb(48.956299%,88.68866%,74.781799%);stop-opacity:1;"
         id="stop97" />
      <stop
         offset="0.09375"
         style="stop-color:rgb(48.640442%,88.520813%,74.42627%);stop-opacity:1;"
         id="stop99" />
      <stop
         offset="0.101562"
         style="stop-color:rgb(48.324585%,88.352966%,74.07074%);stop-opacity:1;"
         id="stop101" />
      <stop
         offset="0.109375"
         style="stop-color:rgb(48.007202%,88.186646%,73.713684%);stop-opacity:1;"
         id="stop103" />
      <stop
         offset="0.117188"
         style="stop-color:rgb(47.691345%,88.018799%,73.358154%);stop-opacity:1;"
         id="stop105" />
      <stop
         offset="0.125"
         style="stop-color:rgb(47.373962%,87.850952%,73.002625%);stop-opacity:1;"
         id="stop107" />
      <stop
         offset="0.132812"
         style="stop-color:rgb(47.058105%,87.684631%,72.647095%);stop-opacity:1;"
         id="stop109" />
      <stop
         offset="0.140625"
         style="stop-color:rgb(46.742249%,87.516785%,72.290039%);stop-opacity:1;"
         id="stop111" />
      <stop
         offset="0.148438"
         style="stop-color:rgb(46.424866%,87.348938%,71.934509%);stop-opacity:1;"
         id="stop113" />
      <stop
         offset="0.15625"
         style="stop-color:rgb(46.109009%,87.182617%,71.578979%);stop-opacity:1;"
         id="stop115" />
      <stop
         offset="0.164062"
         style="stop-color:rgb(45.793152%,87.014771%,71.221924%);stop-opacity:1;"
         id="stop117" />
      <stop
         offset="0.171875"
         style="stop-color:rgb(45.475769%,86.846924%,70.866394%);stop-opacity:1;"
         id="stop119" />
      <stop
         offset="0.179688"
         style="stop-color:rgb(45.159912%,86.680603%,70.510864%);stop-opacity:1;"
         id="stop121" />
      <stop
         offset="0.1875"
         style="stop-color:rgb(44.842529%,86.512756%,70.153809%);stop-opacity:1;"
         id="stop123" />
      <stop
         offset="0.195312"
         style="stop-color:rgb(44.526672%,86.34491%,69.798279%);stop-opacity:1;"
         id="stop125" />
      <stop
         offset="0.203125"
         style="stop-color:rgb(44.210815%,86.178589%,69.442749%);stop-opacity:1;"
         id="stop127" />
      <stop
         offset="0.210938"
         style="stop-color:rgb(43.893433%,86.010742%,69.087219%);stop-opacity:1;"
         id="stop129" />
      <stop
         offset="0.21875"
         style="stop-color:rgb(43.577576%,85.842896%,68.730164%);stop-opacity:1;"
         id="stop131" />
      <stop
         offset="0.226562"
         style="stop-color:rgb(43.261719%,85.676575%,68.374634%);stop-opacity:1;"
         id="stop133" />
      <stop
         offset="0.234375"
         style="stop-color:rgb(42.944336%,85.508728%,68.019104%);stop-opacity:1;"
         id="stop135" />
      <stop
         offset="0.242188"
         style="stop-color:rgb(42.628479%,85.340881%,67.662048%);stop-opacity:1;"
         id="stop137" />
      <stop
         offset="0.25"
         style="stop-color:rgb(42.311096%,85.174561%,67.306519%);stop-opacity:1;"
         id="stop139" />
      <stop
         offset="0.257813"
         style="stop-color:rgb(41.995239%,85.006714%,66.950989%);stop-opacity:1;"
         id="stop141" />
      <stop
         offset="0.265625"
         style="stop-color:rgb(41.679382%,84.838867%,66.595459%);stop-opacity:1;"
         id="stop143" />
      <stop
         offset="0.273438"
         style="stop-color:rgb(41.362%,84.672546%,66.238403%);stop-opacity:1;"
         id="stop145" />
      <stop
         offset="0.28125"
         style="stop-color:rgb(41.046143%,84.5047%,65.882874%);stop-opacity:1;"
         id="stop147" />
      <stop
         offset="0.289062"
         style="stop-color:rgb(40.730286%,84.336853%,65.527344%);stop-opacity:1;"
         id="stop149" />
      <stop
         offset="0.296875"
         style="stop-color:rgb(40.412903%,84.170532%,65.170288%);stop-opacity:1;"
         id="stop151" />
      <stop
         offset="0.304688"
         style="stop-color:rgb(40.097046%,84.002686%,64.814758%);stop-opacity:1;"
         id="stop153" />
      <stop
         offset="0.3125"
         style="stop-color:rgb(39.779663%,83.834839%,64.459229%);stop-opacity:1;"
         id="stop155" />
      <stop
         offset="0.320312"
         style="stop-color:rgb(39.463806%,83.668518%,64.102173%);stop-opacity:1;"
         id="stop157" />
      <stop
         offset="0.328125"
         style="stop-color:rgb(39.147949%,83.500671%,63.746643%);stop-opacity:1;"
         id="stop159" />
      <stop
         offset="0.335938"
         style="stop-color:rgb(38.830566%,83.332825%,63.391113%);stop-opacity:1;"
         id="stop161" />
      <stop
         offset="0.34375"
         style="stop-color:rgb(38.514709%,83.166504%,63.035583%);stop-opacity:1;"
         id="stop163" />
      <stop
         offset="0.351563"
         style="stop-color:rgb(38.198853%,82.998657%,62.678528%);stop-opacity:1;"
         id="stop165" />
      <stop
         offset="0.359375"
         style="stop-color:rgb(37.88147%,82.830811%,62.322998%);stop-opacity:1;"
         id="stop167" />
      <stop
         offset="0.367188"
         style="stop-color:rgb(37.565613%,82.66449%,61.967468%);stop-opacity:1;"
         id="stop169" />
      <stop
         offset="0.375"
         style="stop-color:rgb(37.24823%,82.496643%,61.610413%);stop-opacity:1;"
         id="stop171" />
      <stop
         offset="0.382812"
         style="stop-color:rgb(36.932373%,82.328796%,61.254883%);stop-opacity:1;"
         id="stop173" />
      <stop
         offset="0.390625"
         style="stop-color:rgb(36.616516%,82.162476%,60.899353%);stop-opacity:1;"
         id="stop175" />
      <stop
         offset="0.398438"
         style="stop-color:rgb(36.299133%,81.994629%,60.543823%);stop-opacity:1;"
         id="stop177" />
      <stop
         offset="0.40625"
         style="stop-color:rgb(35.983276%,81.826782%,60.186768%);stop-opacity:1;"
         id="stop179" />
      <stop
         offset="0.414063"
         style="stop-color:rgb(35.667419%,81.660461%,59.831238%);stop-opacity:1;"
         id="stop181" />
      <stop
         offset="0.421875"
         style="stop-color:rgb(35.350037%,81.492615%,59.475708%);stop-opacity:1;"
         id="stop183" />
      <stop
         offset="0.429688"
         style="stop-color:rgb(35.03418%,81.324768%,59.118652%);stop-opacity:1;"
         id="stop185" />
      <stop
         offset="0.4375"
         style="stop-color:rgb(34.716797%,81.158447%,58.763123%);stop-opacity:1;"
         id="stop187" />
      <stop
         offset="0.445312"
         style="stop-color:rgb(34.40094%,80.990601%,58.407593%);stop-opacity:1;"
         id="stop189" />
      <stop
         offset="0.453125"
         style="stop-color:rgb(34.085083%,80.822754%,58.050537%);stop-opacity:1;"
         id="stop191" />
      <stop
         offset="0.460937"
         style="stop-color:rgb(33.7677%,80.656433%,57.695007%);stop-opacity:1;"
         id="stop193" />
      <stop
         offset="0.46875"
         style="stop-color:rgb(33.451843%,80.488586%,57.339478%);stop-opacity:1;"
         id="stop195" />
      <stop
         offset="0.476563"
         style="stop-color:rgb(33.135986%,80.32074%,56.983948%);stop-opacity:1;"
         id="stop197" />
      <stop
         offset="0.484375"
         style="stop-color:rgb(32.818604%,80.154419%,56.626892%);stop-opacity:1;"
         id="stop199" />
      <stop
         offset="0.492188"
         style="stop-color:rgb(32.502747%,79.986572%,56.271362%);stop-opacity:1;"
         id="stop201" />
      <stop
         offset="0.5"
         style="stop-color:rgb(32.185364%,79.818726%,55.915833%);stop-opacity:1;"
         id="stop203" />
      <stop
         offset="0.507813"
         style="stop-color:rgb(31.869507%,79.652405%,55.558777%);stop-opacity:1;"
         id="stop205" />
      <stop
         offset="0.515625"
         style="stop-color:rgb(31.55365%,79.484558%,55.203247%);stop-opacity:1;"
         id="stop207" />
      <stop
         offset="0.523438"
         style="stop-color:rgb(31.236267%,79.316711%,54.847717%);stop-opacity:1;"
         id="stop209" />
      <stop
         offset="0.53125"
         style="stop-color:rgb(30.92041%,79.150391%,54.490662%);stop-opacity:1;"
         id="stop211" />
      <stop
         offset="0.539062"
         style="stop-color:rgb(30.604553%,78.982544%,54.135132%);stop-opacity:1;"
         id="stop213" />
      <stop
         offset="0.546875"
         style="stop-color:rgb(30.28717%,78.814697%,53.779602%);stop-opacity:1;"
         id="stop215" />
      <stop
         offset="0.554688"
         style="stop-color:rgb(29.971313%,78.648376%,53.424072%);stop-opacity:1;"
         id="stop217" />
      <stop
         offset="0.5625"
         style="stop-color:rgb(29.653931%,78.48053%,53.067017%);stop-opacity:1;"
         id="stop219" />
      <stop
         offset="0.570312"
         style="stop-color:rgb(29.338074%,78.312683%,52.711487%);stop-opacity:1;"
         id="stop221" />
      <stop
         offset="0.578125"
         style="stop-color:rgb(29.022217%,78.146362%,52.355957%);stop-opacity:1;"
         id="stop223" />
      <stop
         offset="0.585937"
         style="stop-color:rgb(28.704834%,77.978516%,51.998901%);stop-opacity:1;"
         id="stop225" />
      <stop
         offset="0.59375"
         style="stop-color:rgb(28.388977%,77.810669%,51.643372%);stop-opacity:1;"
         id="stop227" />
      <stop
         offset="0.601563"
         style="stop-color:rgb(28.07312%,77.644348%,51.287842%);stop-opacity:1;"
         id="stop229" />
      <stop
         offset="0.609375"
         style="stop-color:rgb(27.755737%,77.476501%,50.932312%);stop-opacity:1;"
         id="stop231" />
      <stop
         offset="0.617188"
         style="stop-color:rgb(27.43988%,77.308655%,50.575256%);stop-opacity:1;"
         id="stop233" />
      <stop
         offset="0.625"
         style="stop-color:rgb(27.124023%,77.140808%,50.219727%);stop-opacity:1;"
         id="stop235" />
      <stop
         offset="0.632813"
         style="stop-color:rgb(26.806641%,76.974487%,49.864197%);stop-opacity:1;"
         id="stop237" />
      <stop
         offset="0.640625"
         style="stop-color:rgb(26.490784%,76.806641%,49.507141%);stop-opacity:1;"
         id="stop239" />
      <stop
         offset="0.648438"
         style="stop-color:rgb(26.173401%,76.638794%,49.151611%);stop-opacity:1;"
         id="stop241" />
      <stop
         offset="0.65625"
         style="stop-color:rgb(25.857544%,76.472473%,48.796082%);stop-opacity:1;"
         id="stop243" />
      <stop
         offset="0.664062"
         style="stop-color:rgb(25.541687%,76.304626%,48.439026%);stop-opacity:1;"
         id="stop245" />
      <stop
         offset="0.671875"
         style="stop-color:rgb(25.224304%,76.13678%,48.083496%);stop-opacity:1;"
         id="stop247" />
      <stop
         offset="0.679688"
         style="stop-color:rgb(24.908447%,75.970459%,47.727966%);stop-opacity:1;"
         id="stop249" />
      <stop
         offset="0.6875"
         style="stop-color:rgb(24.59259%,75.802612%,47.372437%);stop-opacity:1;"
         id="stop251" />
      <stop
         offset="0.695313"
         style="stop-color:rgb(24.275208%,75.634766%,47.015381%);stop-opacity:1;"
         id="stop253" />
      <stop
         offset="0.703125"
         style="stop-color:rgb(23.959351%,75.468445%,46.659851%);stop-opacity:1;"
         id="stop255" />
      <stop
         offset="0.710938"
         style="stop-color:rgb(23.641968%,75.300598%,46.304321%);stop-opacity:1;"
         id="stop257" />
      <stop
         offset="0.71875"
         style="stop-color:rgb(23.326111%,75.132751%,45.947266%);stop-opacity:1;"
         id="stop259" />
      <stop
         offset="0.726563"
         style="stop-color:rgb(23.010254%,74.966431%,45.591736%);stop-opacity:1;"
         id="stop261" />
      <stop
         offset="0.734375"
         style="stop-color:rgb(22.692871%,74.798584%,45.236206%);stop-opacity:1;"
         id="stop263" />
      <stop
         offset="0.742188"
         style="stop-color:rgb(22.377014%,74.630737%,44.880676%);stop-opacity:1;"
         id="stop265" />
      <stop
         offset="0.75"
         style="stop-color:rgb(22.061157%,74.464417%,44.523621%);stop-opacity:1;"
         id="stop267" />
      <stop
         offset="0.757812"
         style="stop-color:rgb(21.743774%,74.29657%,44.168091%);stop-opacity:1;"
         id="stop269" />
      <stop
         offset="0.765625"
         style="stop-color:rgb(21.427917%,74.128723%,43.812561%);stop-opacity:1;"
         id="stop271" />
      <stop
         offset="0.773438"
         style="stop-color:rgb(21.110535%,73.962402%,43.455505%);stop-opacity:1;"
         id="stop273" />
      <stop
         offset="0.78125"
         style="stop-color:rgb(20.794678%,73.794556%,43.099976%);stop-opacity:1;"
         id="stop275" />
      <stop
         offset="0.789062"
         style="stop-color:rgb(20.478821%,73.626709%,42.744446%);stop-opacity:1;"
         id="stop277" />
      <stop
         offset="0.796875"
         style="stop-color:rgb(20.161438%,73.460388%,42.38739%);stop-opacity:1;"
         id="stop279" />
      <stop
         offset="0.804688"
         style="stop-color:rgb(19.845581%,73.292542%,42.03186%);stop-opacity:1;"
         id="stop281" />
      <stop
         offset="0.8125"
         style="stop-color:rgb(19.529724%,73.124695%,41.676331%);stop-opacity:1;"
         id="stop283" />
      <stop
         offset="0.820313"
         style="stop-color:rgb(19.212341%,72.958374%,41.320801%);stop-opacity:1;"
         id="stop285" />
      <stop
         offset="0.828125"
         style="stop-color:rgb(18.896484%,72.790527%,40.963745%);stop-opacity:1;"
         id="stop287" />
      <stop
         offset="0.835938"
         style="stop-color:rgb(18.579102%,72.622681%,40.608215%);stop-opacity:1;"
         id="stop289" />
      <stop
         offset="0.84375"
         style="stop-color:rgb(18.263245%,72.45636%,40.252686%);stop-opacity:1;"
         id="stop291" />
      <stop
         offset="0.851563"
         style="stop-color:rgb(17.947388%,72.288513%,39.89563%);stop-opacity:1;"
         id="stop293" />
      <stop
         offset="0.859375"
         style="stop-color:rgb(17.630005%,72.120667%,39.5401%);stop-opacity:1;"
         id="stop295" />
      <stop
         offset="0.867188"
         style="stop-color:rgb(17.314148%,71.954346%,39.18457%);stop-opacity:1;"
         id="stop297" />
      <stop
         offset="0.875"
         style="stop-color:rgb(16.998291%,71.786499%,38.829041%);stop-opacity:1;"
         id="stop299" />
      <stop
         offset="0.882812"
         style="stop-color:rgb(16.680908%,71.618652%,38.471985%);stop-opacity:1;"
         id="stop301" />
      <stop
         offset="0.890625"
         style="stop-color:rgb(16.365051%,71.452332%,38.116455%);stop-opacity:1;"
         id="stop303" />
      <stop
         offset="0.898438"
         style="stop-color:rgb(16.047668%,71.284485%,37.760925%);stop-opacity:1;"
         id="stop305" />
      <stop
         offset="0.90625"
         style="stop-color:rgb(15.731812%,71.116638%,37.40387%);stop-opacity:1;"
         id="stop307" />
      <stop
         offset="0.914062"
         style="stop-color:rgb(15.415955%,70.950317%,37.04834%);stop-opacity:1;"
         id="stop309" />
      <stop
         offset="0.921875"
         style="stop-color:rgb(15.098572%,70.782471%,36.69281%);stop-opacity:1;"
         id="stop311" />
      <stop
         offset="0.929687"
         style="stop-color:rgb(14.782715%,70.614624%,36.335754%);stop-opacity:1;"
         id="stop313" />
      <stop
         offset="0.9375"
         style="stop-color:rgb(14.466858%,70.448303%,35.980225%);stop-opacity:1;"
         id="stop315" />
      <stop
         offset="0.945313"
         style="stop-color:rgb(14.149475%,70.280457%,35.624695%);stop-opacity:1;"
         id="stop317" />
      <stop
         offset="0.953125"
         style="stop-color:rgb(13.833618%,70.11261%,35.269165%);stop-opacity:1;"
         id="stop319" />
      <stop
         offset="0.960938"
         style="stop-color:rgb(13.516235%,69.946289%,34.912109%);stop-opacity:1;"
         id="stop321" />
      <stop
         offset="0.96875"
         style="stop-color:rgb(13.200378%,69.778442%,34.55658%);stop-opacity:1;"
         id="stop323" />
      <stop
         offset="0.976562"
         style="stop-color:rgb(12.884521%,69.610596%,34.20105%);stop-opacity:1;"
         id="stop325" />
      <stop
         offset="0.984375"
         style="stop-color:rgb(12.567139%,69.444275%,33.843994%);stop-opacity:1;"
         id="stop327" />
      <stop
         offset="0.992188"
         style="stop-color:rgb(12.251282%,69.276428%,33.488464%);stop-opacity:1;"
         id="stop329" />
      <stop
         offset="1"
         style="stop-color:rgb(11.935425%,69.108582%,33.132935%);stop-opacity:1;"
         id="stop331" />
    </linearGradient>
  </defs>
  <g
     id="surface1690"
     style="display:inline">
    <use
       xlink:href="#surface1701"
       transform="translate(2,3)"
       mask="url(#mask0)"
       id="use340"
       x="0"
       y="0"
       width="100%"
       height="100%" />
    <use
       xlink:href="#surface1705"
       transform="translate(1,2)"
       mask="url(#mask2)"
       id="use342"
       x="0"
       y="0"
       width="100%"
       height="100%" />
    <path
       style="fill:none;stroke:#000000;stroke-width:7.00146;stroke-linecap:butt;stroke-linejoin:round;stroke-miterlimit:10;stroke-opacity:1"
       d="m 14.371094,26.276562 -1.160156,1.8125 -1.078126,1.871094 -0.964843,1.929688 -0.878907,1.984375 -0.765624,2.011718 -0.679688,2.042969 -0.566406,2.066406 -0.480469,2.097657 -0.34375,2.128906 -0.253906,2.152344 -0.167969,2.125 -0.027344,2.15625 0.054688,2.152343 0.199218,2.15625 0.253907,2.125 0.398437,2.125 0.480469,2.097657 0.625,2.070312 0.679687,2.042969 0.792969,2.011719 0.90625,1.957031 0.992188,1.898437 1.105469,1.871094 1.164062,1.785156 1.273438,1.757813 1.359374,1.671875 1.421876,1.585937 1.527343,1.558594 1.589844,1.449219 1.644531,1.359375 1.726563,1.304687 1.785156,1.1875 1.84375,1.109375 1.898437,1.019532 1.957032,0.933593 1.984375,0.824219 2.042969,0.734375 2.039062,0.625 2.097656,0.511719 2.125,0.394531 2.125,0.3125 2.128906,0.199219 2.152344,0.113281 2.15625,-0.02734 2.152344,-0.117187 2.15625,-0.226563 2.125,-0.339843 2.097656,-0.425782 2.097656,-0.566406 2.039063,-0.621094 2.015625,-0.765625 1.984375,-0.851562 1.953125,-0.933594 1.871094,-1.050781 1.84375,-1.132813 1.757812,-1.21875 1.699219,-1.304687 1.644531,-1.417969 1.589844,-1.472656 1.472656,-1.53125 1.417969,-1.644531 1.332031,-1.671875 1.246094,-1.757813 1.164062,-1.8125 1.074219,-1.871094 0.964844,-1.929687 0.878906,-1.984375 0.765625,-1.984375 0.679688,-2.070313 0.566406,-2.066406 0.484375,-2.097656 0.339844,-2.125 0.253906,-2.128906 0.167969,-2.152344 0.03125,-2.15625 -0.05859,-2.152344 -0.199219,-2.15625 -0.253906,-2.125 -0.398437,-2.125 -0.480469,-2.097656 -0.59375,-2.070313 -0.707031,-2.042968 -0.796876,-1.980469 -0.90625,-1.984375 -0.992187,-1.898438 -1.078125,-1.871093 -1.191406,-1.789063 -1.273438,-1.757812 -1.332031,-1.671875 -1.445313,-1.585938 -1.53125,-1.53125 -1.589843,-1.472656 -1.640625,-1.363281 -1.730469,-1.304688 -1.785156,-1.1875 -1.84375,-1.105469 -1.898438,-1.019531 -1.957031,-0.9375 -1.984375,-0.824219 -2.011719,-0.734375 -2.070312,-0.625 -2.097656,-0.507812 -2.097657,-0.398438 -2.152343,-0.3125 -2.125,-0.199218 -2.15625,-0.113282 -2.15625,0.03125 -2.152344,0.113282 -2.152344,0.226562 -2.128906,0.339844 -2.097656,0.425781 -2.097657,0.535156 -2.039062,0.652344 -2.011719,0.765625 -1.984375,0.851563 -1.929687,0.9375 -1.898438,1.046875 -1.84375,1.132812 -1.757812,1.21875 L 7.199219,8.928906 Z m 0,0"
       transform="matrix(1,0,0,-1,0,100.8)"
       id="path350" />
    <path
       style="fill:#010101;fill-opacity:1;fill-rule:evenodd;stroke:none"
       d="m 68.9375,72.113281 c 1.929688,-1.359375 0.625,-2.890625 -2.125,-2.4375 -2.4375,0.394531 -2.464844,-0.140625 -0.167969,-3.488281 4.730469,-6.886719 1.785157,-16.808594 -6.4375,-21.65625 -2.890625,-1.699219 -7.878906,-3.144531 -10.914062,-3.175781 -3.738281,-0.02734 -4.648438,-0.535157 -4.902344,-2.71875 -0.199219,-1.671875 0.05469,-2.238281 1.417969,-3.261719 1.957031,-1.445312 3.203125,-3.683594 3.769531,-6.6875 0.367187,-1.871094 0.253906,-2.242188 -0.820313,-2.582031 -0.652343,-0.195313 -1.761718,-0.08203 -2.441406,0.285156 -1.046875,0.539063 -1.300781,0.425781 -1.785156,-0.820313 -0.792969,-2.070312 -1.726562,-2.4375 -3.058594,-1.25 -0.964844,0.878907 -1.164062,1.871094 -1.164062,5.640626 0,0 0.425781,3.429687 -0.398438,4.253906 -0.621094,0.625 -3.199218,1.046875 -3.199218,1.046875 -4.339844,0.910156 -8.5625,4.339843 -7.996094,6.519531 0.425781,1.589844 1.929687,2.949219 3.515625,3.261719 0.964843,0.171875 1.757812,0.851562 2.039062,3.257812 0.625,5.105469 1.277344,7.511719 4.421875,10.574219 2.324219,2.269531 3.035156,3.402344 3.261719,5.214844 0.226563,2.183594 0.113281,2.410156 -2.269531,3.914062 0,0 -2.523438,0.734375 -2.523438,1.585938 0,1.105468 2.582032,1.871094 2.582032,1.871094 3.34375,1.390624 4.960937,1.050781 14.9375,0.878906 5.753906,-0.08594 11,0.02734 11.679687,0.285156 0.765625,0.28125 1.699219,0.08594 2.578125,-0.511719 z M 45.097656,67.945312 c 0,-0.734374 1.871094,-3.855468 2.296875,-3.855468 0.253907,0 1.363281,0.9375 2.496094,2.097656 l 2.011719,2.097656 H 48.5 c -1.871094,0 -3.402344,-0.167968 -3.402344,-0.339844 z m 0,0"
       id="path352" />
  </g>
</svg>
